<svg width="24" height="24" viewBox="0 0 24 24" fill="none" xmlns="http://www.w3.org/2000/svg">
<rect width="24" height="24" rx="12" fill="#8455DB" fill-opacity="0.16"/>
<mask id="mask0_775_3282" style="mask-type:alpha" maskUnits="userSpaceOnUse" x="3" y="3" width="18" height="18">
<rect x="3" y="3" width="18" height="18" fill="#D9D9D9"/>
</mask>
<g mask="url(#mask0_775_3282)">
<path d="M12 19.5C11.5875 19.5 11.2344 19.3531 10.9406 19.0594C10.6469 18.7656 10.5 18.4125 10.5 18H13.5C13.5 18.4125 13.3531 18.7656 13.0594 19.0594C12.7656 19.3531 12.4125 19.5 12 19.5ZM9 17.25V15.75H15V17.25H9ZM9.1875 15C8.325 14.4875 7.64062 13.8 7.13438 12.9375C6.62813 12.075 6.375 11.1375 6.375 10.125C6.375 8.5625 6.92188 7.23438 8.01562 6.14062C9.10938 5.04688 10.4375 4.5 12 4.5C13.5625 4.5 14.8906 5.04688 15.9844 6.14062C17.0781 7.23438 17.625 8.5625 17.625 10.125C17.625 11.1375 17.3719 12.075 16.8656 12.9375C16.3594 13.8 15.675 14.4875 14.8125 15H9.1875ZM9.6375 13.5H14.3625C14.925 13.1 15.3594 12.6063 15.6656 12.0188C15.9719 11.4313 16.125 10.8 16.125 10.125C16.125 8.975 15.725 8 14.925 7.2C14.125 6.4 13.15 6 12 6C10.85 6 9.875 6.4 9.075 7.2C8.275 8 7.875 8.975 7.875 10.125C7.875 10.8 8.02812 11.4313 8.33437 12.0188C8.64062 12.6063 9.075 13.1 9.6375 13.5Z" fill="#8455DB"/>
</g>
</svg>
