<svg width="24" height="24" viewBox="0 0 24 24" fill="none" xmlns="http://www.w3.org/2000/svg">
<g clip-path="url(#clip0_775_4083)">
<mask id="mask0_775_4083" style="mask-type:alpha" maskUnits="userSpaceOnUse" x="0" y="0" width="24" height="24">
<rect width="24" height="24" fill="#D9D9D9"/>
</mask>
<g mask="url(#mask0_775_4083)">
<path d="M3.54625 12.9327C3.52958 12.7789 3.51708 12.6234 3.50875 12.4663C3.50042 12.3093 3.49625 12.1538 3.49625 12C3.49625 10.8205 3.71833 9.71542 4.1625 8.68475C4.60683 7.65392 5.21483 6.75517 5.9865 5.9885C6.75833 5.22183 7.65867 4.61542 8.6875 4.16925C9.71633 3.72308 10.8205 3.5 12 3.5C13.1858 3.5 14.2957 3.72308 15.3298 4.16925C16.3638 4.61542 17.2641 5.22183 18.0307 5.9885C18.7974 6.75517 19.4054 7.65392 19.8547 8.68475C20.3041 9.71542 20.5288 10.8205 20.5288 12C20.5288 12.1538 20.5246 12.3093 20.5163 12.4663C20.5079 12.6234 20.4954 12.7789 20.4788 12.9327H18.9635C18.9903 12.7789 19.0079 12.6234 19.0163 12.4663C19.0246 12.3093 19.0288 12.1538 19.0288 12C19.0288 11.8013 19.0214 11.6026 19.0068 11.4037C18.9919 11.2051 18.9647 11.0096 18.925 10.8173H15.6193C15.6423 11.0096 15.6554 11.2051 15.6587 11.4037C15.6619 11.6026 15.6635 11.8013 15.6635 12V12.4663C15.6635 12.6234 15.6552 12.7789 15.6385 12.9327H14.1635V12.175C14.1635 11.9365 14.1593 11.7044 14.151 11.4787C14.1427 11.2531 14.1269 11.0326 14.1038 10.8173H9.9115C9.8885 11.0326 9.87283 11.2531 9.8645 11.4787C9.85617 11.7044 9.852 11.9365 9.852 12.175V12.9327H8.377C8.36033 12.7789 8.352 12.6234 8.352 12.4663V12C8.352 11.8013 8.35358 11.6026 8.35675 11.4037C8.35992 11.2051 8.37308 11.0096 8.39625 10.8173H5.1C5.06033 11.0096 5.03308 11.2051 5.01825 11.4037C5.00358 11.6026 4.99625 11.8013 4.99625 12C4.99625 12.1538 5.00042 12.3093 5.00875 12.4663C5.01708 12.6234 5.03467 12.7789 5.0615 12.9327H3.54625ZM5.54625 9.31725H8.5635C8.716 8.42108 8.92592 7.64708 9.19325 6.99525C9.46058 6.34325 9.77825 5.78392 10.1463 5.31725C9.11542 5.55325 8.19167 6.02508 7.375 6.73275C6.55833 7.44042 5.94875 8.30192 5.54625 9.31725ZM10.1192 9.31725H13.8807C13.7269 8.54292 13.5026 7.79325 13.2078 7.06825C12.9129 6.34325 12.5103 5.68592 12 5.09625C11.4897 5.69242 11.0862 6.35133 10.7895 7.073C10.4927 7.79483 10.2692 8.54292 10.1192 9.31725ZM15.452 9.31725H18.4788C18.0763 8.29542 17.4577 7.43225 16.623 6.72775C15.7883 6.02342 14.8524 5.55325 13.8152 5.31725C14.1961 5.81092 14.5259 6.38333 14.8048 7.0345C15.0836 7.68583 15.2993 8.44675 15.452 9.31725ZM11.25 20.5V19.75C11.25 18.8782 10.9439 18.1394 10.3317 17.5337C9.71958 16.9279 8.97758 16.625 8.10575 16.625H2.5V15.125H8.10575C8.91225 15.125 9.6565 15.3144 10.3385 15.6933C11.0205 16.0721 11.5743 16.5943 12 17.2598C12.4257 16.5943 12.9795 16.0721 13.6615 15.6933C14.3435 15.3144 15.0845 15.125 15.8845 15.125H21.5V16.625H15.8845C15.0128 16.625 14.2725 16.9279 13.6635 17.5337C13.0545 18.1394 12.75 18.8782 12.75 19.75V20.5H11.25Z" fill="#3C322D"/>
</g>
</g>
<defs>
<clipPath id="clip0_775_4083">
<rect width="24" height="24" fill="white"/>
</clipPath>
</defs>
</svg>
