<svg width="24" height="24" viewBox="0 0 24 24" fill="none" xmlns="http://www.w3.org/2000/svg">
<g clip-path="url(#clip0_1520_35046)">
<mask id="mask0_1520_35046" style="mask-type:alpha" maskUnits="userSpaceOnUse" x="0" y="0" width="24" height="24">
<rect width="24" height="24" fill="#D9D9D9"/>
</mask>
<g mask="url(#mask0_1520_35046)">
<path d="M7.725 14.2763C8.20833 14.7597 8.8 15.0013 9.5 15.0013C10.2 15.0013 10.7917 14.7597 11.275 14.2763L15.275 10.2763C15.7583 9.79301 16 9.20134 16 8.50134C16 7.80134 15.7583 7.20968 15.275 6.72634C14.7917 6.24301 14.2 6.00134 13.5 6.00134C12.8 6.00134 12.2083 6.24301 11.725 6.72634C11.1083 6.50968 10.5 6.45968 9.9 6.57634C9.3 6.69301 8.79167 6.95968 8.375 7.37634C7.95833 7.79301 7.69167 8.30134 7.575 8.90134C7.45833 9.50134 7.50833 10.1097 7.725 10.7263C7.24167 11.2097 7 11.8013 7 12.5013C7 13.2013 7.24167 13.793 7.725 14.2763ZM6 22.0013V17.7013C5.05 16.8347 4.3125 15.8222 3.7875 14.6638C3.2625 13.5055 3 12.2847 3 11.0013C3 8.50134 3.875 6.37634 5.625 4.62634C7.375 2.87634 9.5 2.00134 12 2.00134C14.0833 2.00134 15.9292 2.61384 17.5375 3.83884C19.1458 5.06384 20.1917 6.65968 20.675 8.62634L21.975 13.7513C22.0583 14.068 22 14.3555 21.8 14.6138C21.6 14.8722 21.3333 15.0013 21 15.0013H19V18.0013C19 18.5513 18.8042 19.0222 18.4125 19.4138C18.0208 19.8055 17.55 20.0013 17 20.0013H15V22.0013H13V18.0013H17V13.0013H19.7L18.75 9.12634C18.3667 7.60968 17.55 6.37634 16.3 5.42634C15.05 4.47634 13.6167 4.00134 12 4.00134C10.0667 4.00134 8.41667 4.67634 7.05 6.02634C5.68333 7.37634 5 9.01801 5 10.9513C5 11.9513 5.20417 12.9013 5.6125 13.8013C6.02083 14.7013 6.6 15.5013 7.35 16.2013L8 16.8013V22.0013H6Z" fill="#3C322D"/>
</g>
</g>
<defs>
<clipPath id="clip0_1520_35046">
<rect width="24" height="24" fill="white"/>
</clipPath>
</defs>
</svg>
