<svg width="1280" height="640" viewBox="0 0 1280 640" fill="none" xmlns="http://www.w3.org/2000/svg">
<g clip-path="url(#clip0_1009_1947)">
<mask id="mask0_1009_1947" style="mask-type:alpha" maskUnits="userSpaceOnUse" x="18" y="-76" width="1244" height="764">
<rect x="18" y="4" width="4" height="4" rx="2" fill="black"/>
<rect x="58" y="4" width="4" height="4" rx="2" fill="black"/>
<rect x="98" y="4" width="4" height="4" rx="2" fill="black"/>
<rect x="138" y="4" width="4" height="4" rx="2" fill="black"/>
<rect x="178" y="4" width="4" height="4" rx="2" fill="black"/>
<rect x="218" y="4" width="4" height="4" rx="2" fill="black"/>
<rect x="258" y="4" width="4" height="4" rx="2" fill="black"/>
<rect x="298" y="4" width="4" height="4" rx="2" fill="black"/>
<rect x="338" y="4" width="4" height="4" rx="2" fill="black"/>
<rect x="378" y="4" width="4" height="4" rx="2" fill="black"/>
<rect x="418" y="4" width="4" height="4" rx="2" fill="black"/>
<rect x="458" y="4" width="4" height="4" rx="2" fill="black"/>
<rect x="498" y="4" width="4" height="4" rx="2" fill="black"/>
<rect x="538" y="4" width="4" height="4" rx="2" fill="black"/>
<rect x="578" y="4" width="4" height="4" rx="2" fill="black"/>
<rect x="618" y="4" width="4" height="4" rx="2" fill="black"/>
<rect x="658" y="4" width="4" height="4" rx="2" fill="black"/>
<rect x="698" y="4" width="4" height="4" rx="2" fill="black"/>
<rect x="738" y="4" width="4" height="4" rx="2" fill="black"/>
<rect x="778" y="4" width="4" height="4" rx="2" fill="black"/>
<rect x="818" y="4" width="4" height="4" rx="2" fill="black"/>
<rect x="858" y="4" width="4" height="4" rx="2" fill="black"/>
<rect x="898" y="4" width="4" height="4" rx="2" fill="black"/>
<rect x="938" y="4" width="4" height="4" rx="2" fill="black"/>
<rect x="978" y="4" width="4" height="4" rx="2" fill="black"/>
<rect x="1018" y="4" width="4" height="4" rx="2" fill="black"/>
<rect x="1058" y="4" width="4" height="4" rx="2" fill="black"/>
<rect x="1098" y="4" width="4" height="4" rx="2" fill="black"/>
<rect x="1138" y="4" width="4" height="4" rx="2" fill="black"/>
<rect x="1178" y="4" width="4" height="4" rx="2" fill="black"/>
<rect x="1218" y="4" width="4" height="4" rx="2" fill="black"/>
<rect x="1258" y="4" width="4" height="4" rx="2" fill="black"/>
<rect x="18" y="44" width="4" height="4" rx="2" fill="black"/>
<rect x="58" y="44" width="4" height="4" rx="2" fill="black"/>
<rect x="98" y="44" width="4" height="4" rx="2" fill="black"/>
<rect x="138" y="44" width="4" height="4" rx="2" fill="black"/>
<rect x="178" y="44" width="4" height="4" rx="2" fill="black"/>
<rect x="218" y="44" width="4" height="4" rx="2" fill="black"/>
<rect x="258" y="44" width="4" height="4" rx="2" fill="black"/>
<rect x="298" y="44" width="4" height="4" rx="2" fill="black"/>
<rect x="338" y="44" width="4" height="4" rx="2" fill="black"/>
<rect x="378" y="44" width="4" height="4" rx="2" fill="black"/>
<rect x="418" y="44" width="4" height="4" rx="2" fill="black"/>
<rect x="458" y="44" width="4" height="4" rx="2" fill="black"/>
<rect x="498" y="44" width="4" height="4" rx="2" fill="black"/>
<rect x="538" y="44" width="4" height="4" rx="2" fill="black"/>
<rect x="578" y="44" width="4" height="4" rx="2" fill="black"/>
<rect x="618" y="44" width="4" height="4" rx="2" fill="black"/>
<rect x="658" y="44" width="4" height="4" rx="2" fill="black"/>
<rect x="698" y="44" width="4" height="4" rx="2" fill="black"/>
<rect x="738" y="44" width="4" height="4" rx="2" fill="black"/>
<rect x="778" y="44" width="4" height="4" rx="2" fill="black"/>
<rect x="818" y="44" width="4" height="4" rx="2" fill="black"/>
<rect x="858" y="44" width="4" height="4" rx="2" fill="black"/>
<rect x="898" y="44" width="4" height="4" rx="2" fill="black"/>
<rect x="938" y="44" width="4" height="4" rx="2" fill="black"/>
<rect x="978" y="44" width="4" height="4" rx="2" fill="black"/>
<rect x="1018" y="44" width="4" height="4" rx="2" fill="black"/>
<rect x="1058" y="44" width="4" height="4" rx="2" fill="black"/>
<rect x="1098" y="44" width="4" height="4" rx="2" fill="black"/>
<rect x="1138" y="44" width="4" height="4" rx="2" fill="black"/>
<rect x="1178" y="44" width="4" height="4" rx="2" fill="black"/>
<rect x="1218" y="44" width="4" height="4" rx="2" fill="black"/>
<rect x="1258" y="44" width="4" height="4" rx="2" fill="black"/>
<rect x="18" y="84" width="4" height="4" rx="2" fill="black"/>
<rect x="58" y="84" width="4" height="4" rx="2" fill="black"/>
<rect x="98" y="84" width="4" height="4" rx="2" fill="black"/>
<rect x="138" y="84" width="4" height="4" rx="2" fill="black"/>
<rect x="178" y="84" width="4" height="4" rx="2" fill="black"/>
<rect x="218" y="84" width="4" height="4" rx="2" fill="black"/>
<rect x="258" y="84" width="4" height="4" rx="2" fill="black"/>
<rect x="298" y="84" width="4" height="4" rx="2" fill="black"/>
<rect x="338" y="84" width="4" height="4" rx="2" fill="black"/>
<rect x="378" y="84" width="4" height="4" rx="2" fill="black"/>
<rect x="418" y="84" width="4" height="4" rx="2" fill="black"/>
<rect x="458" y="84" width="4" height="4" rx="2" fill="black"/>
<rect x="498" y="84" width="4" height="4" rx="2" fill="black"/>
<rect x="538" y="84" width="4" height="4" rx="2" fill="black"/>
<rect x="578" y="84" width="4" height="4" rx="2" fill="black"/>
<rect x="618" y="84" width="4" height="4" rx="2" fill="black"/>
<rect x="658" y="84" width="4" height="4" rx="2" fill="black"/>
<rect x="698" y="84" width="4" height="4" rx="2" fill="black"/>
<rect x="738" y="84" width="4" height="4" rx="2" fill="black"/>
<rect x="778" y="84" width="4" height="4" rx="2" fill="black"/>
<rect x="818" y="84" width="4" height="4" rx="2" fill="black"/>
<rect x="858" y="84" width="4" height="4" rx="2" fill="black"/>
<rect x="898" y="84" width="4" height="4" rx="2" fill="black"/>
<rect x="938" y="84" width="4" height="4" rx="2" fill="black"/>
<rect x="978" y="84" width="4" height="4" rx="2" fill="black"/>
<rect x="1018" y="84" width="4" height="4" rx="2" fill="black"/>
<rect x="1058" y="84" width="4" height="4" rx="2" fill="black"/>
<rect x="1098" y="84" width="4" height="4" rx="2" fill="black"/>
<rect x="1138" y="84" width="4" height="4" rx="2" fill="black"/>
<rect x="1178" y="84" width="4" height="4" rx="2" fill="black"/>
<rect x="1218" y="84" width="4" height="4" rx="2" fill="black"/>
<rect x="1258" y="84" width="4" height="4" rx="2" fill="black"/>
<rect x="18" y="124" width="4" height="4" rx="2" fill="black"/>
<rect x="58" y="124" width="4" height="4" rx="2" fill="black"/>
<rect x="98" y="124" width="4" height="4" rx="2" fill="black"/>
<rect x="138" y="124" width="4" height="4" rx="2" fill="black"/>
<rect x="178" y="124" width="4" height="4" rx="2" fill="black"/>
<rect x="218" y="124" width="4" height="4" rx="2" fill="black"/>
<rect x="258" y="124" width="4" height="4" rx="2" fill="black"/>
<rect x="298" y="124" width="4" height="4" rx="2" fill="black"/>
<rect x="338" y="124" width="4" height="4" rx="2" fill="black"/>
<rect x="378" y="124" width="4" height="4" rx="2" fill="black"/>
<rect x="418" y="124" width="4" height="4" rx="2" fill="black"/>
<rect x="458" y="124" width="4" height="4" rx="2" fill="black"/>
<rect x="498" y="124" width="4" height="4" rx="2" fill="black"/>
<rect x="538" y="124" width="4" height="4" rx="2" fill="black"/>
<rect x="578" y="124" width="4" height="4" rx="2" fill="black"/>
<rect x="618" y="124" width="4" height="4" rx="2" fill="black"/>
<rect x="658" y="124" width="4" height="4" rx="2" fill="black"/>
<rect x="698" y="124" width="4" height="4" rx="2" fill="black"/>
<rect x="738" y="124" width="4" height="4" rx="2" fill="black"/>
<rect x="778" y="124" width="4" height="4" rx="2" fill="black"/>
<rect x="818" y="124" width="4" height="4" rx="2" fill="black"/>
<rect x="858" y="124" width="4" height="4" rx="2" fill="black"/>
<rect x="898" y="124" width="4" height="4" rx="2" fill="black"/>
<rect x="938" y="124" width="4" height="4" rx="2" fill="black"/>
<rect x="978" y="124" width="4" height="4" rx="2" fill="black"/>
<rect x="1018" y="124" width="4" height="4" rx="2" fill="black"/>
<rect x="1058" y="124" width="4" height="4" rx="2" fill="black"/>
<rect x="1098" y="124" width="4" height="4" rx="2" fill="black"/>
<rect x="1138" y="124" width="4" height="4" rx="2" fill="black"/>
<rect x="1178" y="124" width="4" height="4" rx="2" fill="black"/>
<rect x="1218" y="124" width="4" height="4" rx="2" fill="black"/>
<rect x="1258" y="124" width="4" height="4" rx="2" fill="black"/>
<rect x="18" y="164" width="4" height="4" rx="2" fill="black"/>
<rect x="58" y="164" width="4" height="4" rx="2" fill="black"/>
<rect x="98" y="164" width="4" height="4" rx="2" fill="black"/>
<rect x="138" y="164" width="4" height="4" rx="2" fill="black"/>
<rect x="178" y="164" width="4" height="4" rx="2" fill="black"/>
<rect x="218" y="164" width="4" height="4" rx="2" fill="black"/>
<rect x="258" y="164" width="4" height="4" rx="2" fill="black"/>
<rect x="298" y="164" width="4" height="4" rx="2" fill="black"/>
<rect x="338" y="164" width="4" height="4" rx="2" fill="black"/>
<rect x="378" y="164" width="4" height="4" rx="2" fill="black"/>
<rect x="418" y="164" width="4" height="4" rx="2" fill="black"/>
<rect x="458" y="164" width="4" height="4" rx="2" fill="black"/>
<rect x="498" y="164" width="4" height="4" rx="2" fill="black"/>
<rect x="538" y="164" width="4" height="4" rx="2" fill="black"/>
<rect x="578" y="164" width="4" height="4" rx="2" fill="black"/>
<rect x="618" y="164" width="4" height="4" rx="2" fill="black"/>
<rect x="658" y="164" width="4" height="4" rx="2" fill="black"/>
<rect x="698" y="164" width="4" height="4" rx="2" fill="black"/>
<rect x="738" y="164" width="4" height="4" rx="2" fill="black"/>
<rect x="778" y="164" width="4" height="4" rx="2" fill="black"/>
<rect x="818" y="164" width="4" height="4" rx="2" fill="black"/>
<rect x="858" y="164" width="4" height="4" rx="2" fill="black"/>
<rect x="898" y="164" width="4" height="4" rx="2" fill="black"/>
<rect x="938" y="164" width="4" height="4" rx="2" fill="black"/>
<rect x="978" y="164" width="4" height="4" rx="2" fill="black"/>
<rect x="1018" y="164" width="4" height="4" rx="2" fill="black"/>
<rect x="1058" y="164" width="4" height="4" rx="2" fill="black"/>
<rect x="1098" y="164" width="4" height="4" rx="2" fill="black"/>
<rect x="1138" y="164" width="4" height="4" rx="2" fill="black"/>
<rect x="1178" y="164" width="4" height="4" rx="2" fill="black"/>
<rect x="1218" y="164" width="4" height="4" rx="2" fill="black"/>
<rect x="1258" y="164" width="4" height="4" rx="2" fill="black"/>
<rect x="18" y="204" width="4" height="4" rx="2" fill="black"/>
<rect x="58" y="204" width="4" height="4" rx="2" fill="black"/>
<rect x="98" y="204" width="4" height="4" rx="2" fill="black"/>
<rect x="138" y="204" width="4" height="4" rx="2" fill="black"/>
<rect x="178" y="204" width="4" height="4" rx="2" fill="black"/>
<rect x="218" y="204" width="4" height="4" rx="2" fill="black"/>
<rect x="258" y="204" width="4" height="4" rx="2" fill="black"/>
<rect x="298" y="204" width="4" height="4" rx="2" fill="black"/>
<rect x="338" y="204" width="4" height="4" rx="2" fill="black"/>
<rect x="378" y="204" width="4" height="4" rx="2" fill="black"/>
<rect x="418" y="204" width="4" height="4" rx="2" fill="black"/>
<rect x="458" y="204" width="4" height="4" rx="2" fill="black"/>
<rect x="498" y="204" width="4" height="4" rx="2" fill="black"/>
<rect x="538" y="204" width="4" height="4" rx="2" fill="black"/>
<rect x="578" y="204" width="4" height="4" rx="2" fill="black"/>
<rect x="618" y="204" width="4" height="4" rx="2" fill="black"/>
<rect x="658" y="204" width="4" height="4" rx="2" fill="black"/>
<rect x="698" y="204" width="4" height="4" rx="2" fill="black"/>
<rect x="738" y="204" width="4" height="4" rx="2" fill="black"/>
<rect x="778" y="204" width="4" height="4" rx="2" fill="black"/>
<rect x="818" y="204" width="4" height="4" rx="2" fill="black"/>
<rect x="858" y="204" width="4" height="4" rx="2" fill="black"/>
<rect x="898" y="204" width="4" height="4" rx="2" fill="black"/>
<rect x="938" y="204" width="4" height="4" rx="2" fill="black"/>
<rect x="978" y="204" width="4" height="4" rx="2" fill="black"/>
<rect x="1018" y="204" width="4" height="4" rx="2" fill="black"/>
<rect x="1058" y="204" width="4" height="4" rx="2" fill="black"/>
<rect x="1098" y="204" width="4" height="4" rx="2" fill="black"/>
<rect x="1138" y="204" width="4" height="4" rx="2" fill="black"/>
<rect x="1178" y="204" width="4" height="4" rx="2" fill="black"/>
<rect x="1218" y="204" width="4" height="4" rx="2" fill="black"/>
<rect x="1258" y="204" width="4" height="4" rx="2" fill="black"/>
<rect x="18" y="244" width="4" height="4" rx="2" fill="black"/>
<rect x="58" y="244" width="4" height="4" rx="2" fill="black"/>
<rect x="98" y="244" width="4" height="4" rx="2" fill="black"/>
<rect x="138" y="244" width="4" height="4" rx="2" fill="black"/>
<rect x="178" y="244" width="4" height="4" rx="2" fill="black"/>
<rect x="218" y="244" width="4" height="4" rx="2" fill="black"/>
<rect x="258" y="244" width="4" height="4" rx="2" fill="black"/>
<rect x="298" y="244" width="4" height="4" rx="2" fill="black"/>
<rect x="338" y="244" width="4" height="4" rx="2" fill="black"/>
<rect x="378" y="244" width="4" height="4" rx="2" fill="black"/>
<rect x="418" y="244" width="4" height="4" rx="2" fill="black"/>
<rect x="458" y="244" width="4" height="4" rx="2" fill="black"/>
<rect x="498" y="244" width="4" height="4" rx="2" fill="black"/>
<rect x="538" y="244" width="4" height="4" rx="2" fill="black"/>
<rect x="578" y="244" width="4" height="4" rx="2" fill="black"/>
<rect x="618" y="244" width="4" height="4" rx="2" fill="black"/>
<rect x="658" y="244" width="4" height="4" rx="2" fill="black"/>
<rect x="698" y="244" width="4" height="4" rx="2" fill="black"/>
<rect x="738" y="244" width="4" height="4" rx="2" fill="black"/>
<rect x="778" y="244" width="4" height="4" rx="2" fill="black"/>
<rect x="818" y="244" width="4" height="4" rx="2" fill="black"/>
<rect x="858" y="244" width="4" height="4" rx="2" fill="black"/>
<rect x="898" y="244" width="4" height="4" rx="2" fill="black"/>
<rect x="938" y="244" width="4" height="4" rx="2" fill="black"/>
<rect x="978" y="244" width="4" height="4" rx="2" fill="black"/>
<rect x="1018" y="244" width="4" height="4" rx="2" fill="black"/>
<rect x="1058" y="244" width="4" height="4" rx="2" fill="black"/>
<rect x="1098" y="244" width="4" height="4" rx="2" fill="black"/>
<rect x="1138" y="244" width="4" height="4" rx="2" fill="black"/>
<rect x="1178" y="244" width="4" height="4" rx="2" fill="black"/>
<rect x="1218" y="244" width="4" height="4" rx="2" fill="black"/>
<rect x="1258" y="244" width="4" height="4" rx="2" fill="black"/>
<rect x="18" y="284" width="4" height="4" rx="2" fill="black"/>
<rect x="58" y="284" width="4" height="4" rx="2" fill="black"/>
<rect x="98" y="284" width="4" height="4" rx="2" fill="black"/>
<rect x="138" y="284" width="4" height="4" rx="2" fill="black"/>
<rect x="178" y="284" width="4" height="4" rx="2" fill="black"/>
<rect x="218" y="284" width="4" height="4" rx="2" fill="black"/>
<rect x="258" y="284" width="4" height="4" rx="2" fill="black"/>
<rect x="298" y="284" width="4" height="4" rx="2" fill="black"/>
<rect x="338" y="284" width="4" height="4" rx="2" fill="black"/>
<rect x="378" y="284" width="4" height="4" rx="2" fill="black"/>
<rect x="418" y="284" width="4" height="4" rx="2" fill="black"/>
<rect x="458" y="284" width="4" height="4" rx="2" fill="black"/>
<rect x="498" y="284" width="4" height="4" rx="2" fill="black"/>
<rect x="538" y="284" width="4" height="4" rx="2" fill="black"/>
<rect x="578" y="284" width="4" height="4" rx="2" fill="black"/>
<rect x="618" y="284" width="4" height="4" rx="2" fill="black"/>
<rect x="658" y="284" width="4" height="4" rx="2" fill="black"/>
<rect x="698" y="284" width="4" height="4" rx="2" fill="black"/>
<rect x="738" y="284" width="4" height="4" rx="2" fill="black"/>
<rect x="778" y="284" width="4" height="4" rx="2" fill="black"/>
<rect x="818" y="284" width="4" height="4" rx="2" fill="black"/>
<rect x="858" y="284" width="4" height="4" rx="2" fill="black"/>
<rect x="898" y="284" width="4" height="4" rx="2" fill="black"/>
<rect x="938" y="284" width="4" height="4" rx="2" fill="black"/>
<rect x="978" y="284" width="4" height="4" rx="2" fill="black"/>
<rect x="1018" y="284" width="4" height="4" rx="2" fill="black"/>
<rect x="1058" y="284" width="4" height="4" rx="2" fill="black"/>
<rect x="1098" y="284" width="4" height="4" rx="2" fill="black"/>
<rect x="1138" y="284" width="4" height="4" rx="2" fill="black"/>
<rect x="1178" y="284" width="4" height="4" rx="2" fill="black"/>
<rect x="1218" y="284" width="4" height="4" rx="2" fill="black"/>
<rect x="1258" y="284" width="4" height="4" rx="2" fill="black"/>
<rect x="18" y="324" width="4" height="4" rx="2" fill="black"/>
<rect x="58" y="324" width="4" height="4" rx="2" fill="black"/>
<rect x="98" y="324" width="4" height="4" rx="2" fill="black"/>
<rect x="138" y="324" width="4" height="4" rx="2" fill="black"/>
<rect x="178" y="324" width="4" height="4" rx="2" fill="black"/>
<rect x="218" y="324" width="4" height="4" rx="2" fill="black"/>
<rect x="258" y="324" width="4" height="4" rx="2" fill="black"/>
<rect x="298" y="324" width="4" height="4" rx="2" fill="black"/>
<rect x="338" y="324" width="4" height="4" rx="2" fill="black"/>
<rect x="378" y="324" width="4" height="4" rx="2" fill="black"/>
<rect x="418" y="324" width="4" height="4" rx="2" fill="black"/>
<rect x="458" y="324" width="4" height="4" rx="2" fill="black"/>
<rect x="498" y="324" width="4" height="4" rx="2" fill="black"/>
<rect x="538" y="324" width="4" height="4" rx="2" fill="black"/>
<rect x="578" y="324" width="4" height="4" rx="2" fill="black"/>
<rect x="618" y="324" width="4" height="4" rx="2" fill="black"/>
<rect x="658" y="324" width="4" height="4" rx="2" fill="black"/>
<rect x="698" y="324" width="4" height="4" rx="2" fill="black"/>
<rect x="738" y="324" width="4" height="4" rx="2" fill="black"/>
<rect x="778" y="324" width="4" height="4" rx="2" fill="black"/>
<rect x="818" y="324" width="4" height="4" rx="2" fill="black"/>
<rect x="858" y="324" width="4" height="4" rx="2" fill="black"/>
<rect x="898" y="324" width="4" height="4" rx="2" fill="black"/>
<rect x="938" y="324" width="4" height="4" rx="2" fill="black"/>
<rect x="978" y="324" width="4" height="4" rx="2" fill="black"/>
<rect x="1018" y="324" width="4" height="4" rx="2" fill="black"/>
<rect x="1058" y="324" width="4" height="4" rx="2" fill="black"/>
<rect x="1098" y="324" width="4" height="4" rx="2" fill="black"/>
<rect x="1138" y="324" width="4" height="4" rx="2" fill="black"/>
<rect x="1178" y="324" width="4" height="4" rx="2" fill="black"/>
<rect x="1218" y="324" width="4" height="4" rx="2" fill="black"/>
<rect x="1258" y="324" width="4" height="4" rx="2" fill="black"/>
<rect x="18" y="364" width="4" height="4" rx="2" fill="black"/>
<rect x="58" y="364" width="4" height="4" rx="2" fill="black"/>
<rect x="98" y="364" width="4" height="4" rx="2" fill="black"/>
<rect x="138" y="364" width="4" height="4" rx="2" fill="black"/>
<rect x="178" y="364" width="4" height="4" rx="2" fill="black"/>
<rect x="218" y="364" width="4" height="4" rx="2" fill="black"/>
<rect x="258" y="364" width="4" height="4" rx="2" fill="black"/>
<rect x="298" y="364" width="4" height="4" rx="2" fill="black"/>
<rect x="338" y="364" width="4" height="4" rx="2" fill="black"/>
<rect x="378" y="364" width="4" height="4" rx="2" fill="black"/>
<rect x="418" y="364" width="4" height="4" rx="2" fill="black"/>
<rect x="458" y="364" width="4" height="4" rx="2" fill="black"/>
<rect x="498" y="364" width="4" height="4" rx="2" fill="black"/>
<rect x="538" y="364" width="4" height="4" rx="2" fill="black"/>
<rect x="578" y="364" width="4" height="4" rx="2" fill="black"/>
<rect x="618" y="364" width="4" height="4" rx="2" fill="black"/>
<rect x="658" y="364" width="4" height="4" rx="2" fill="black"/>
<rect x="698" y="364" width="4" height="4" rx="2" fill="black"/>
<rect x="738" y="364" width="4" height="4" rx="2" fill="black"/>
<rect x="778" y="364" width="4" height="4" rx="2" fill="black"/>
<rect x="818" y="364" width="4" height="4" rx="2" fill="black"/>
<rect x="858" y="364" width="4" height="4" rx="2" fill="black"/>
<rect x="898" y="364" width="4" height="4" rx="2" fill="black"/>
<rect x="938" y="364" width="4" height="4" rx="2" fill="black"/>
<rect x="978" y="364" width="4" height="4" rx="2" fill="black"/>
<rect x="1018" y="364" width="4" height="4" rx="2" fill="black"/>
<rect x="1058" y="364" width="4" height="4" rx="2" fill="black"/>
<rect x="1098" y="364" width="4" height="4" rx="2" fill="black"/>
<rect x="1138" y="364" width="4" height="4" rx="2" fill="black"/>
<rect x="1178" y="364" width="4" height="4" rx="2" fill="black"/>
<rect x="1218" y="364" width="4" height="4" rx="2" fill="black"/>
<rect x="1258" y="364" width="4" height="4" rx="2" fill="black"/>
<rect x="18" y="404" width="4" height="4" rx="2" fill="black"/>
<rect x="58" y="404" width="4" height="4" rx="2" fill="black"/>
<rect x="98" y="404" width="4" height="4" rx="2" fill="black"/>
<rect x="138" y="404" width="4" height="4" rx="2" fill="black"/>
<rect x="178" y="404" width="4" height="4" rx="2" fill="black"/>
<rect x="218" y="404" width="4" height="4" rx="2" fill="black"/>
<rect x="258" y="404" width="4" height="4" rx="2" fill="black"/>
<rect x="298" y="404" width="4" height="4" rx="2" fill="black"/>
<rect x="338" y="404" width="4" height="4" rx="2" fill="black"/>
<rect x="378" y="404" width="4" height="4" rx="2" fill="black"/>
<rect x="418" y="404" width="4" height="4" rx="2" fill="black"/>
<rect x="458" y="404" width="4" height="4" rx="2" fill="black"/>
<rect x="498" y="404" width="4" height="4" rx="2" fill="black"/>
<rect x="538" y="404" width="4" height="4" rx="2" fill="black"/>
<rect x="578" y="404" width="4" height="4" rx="2" fill="black"/>
<rect x="618" y="404" width="4" height="4" rx="2" fill="black"/>
<rect x="658" y="404" width="4" height="4" rx="2" fill="black"/>
<rect x="698" y="404" width="4" height="4" rx="2" fill="black"/>
<rect x="738" y="404" width="4" height="4" rx="2" fill="black"/>
<rect x="778" y="404" width="4" height="4" rx="2" fill="black"/>
<rect x="818" y="404" width="4" height="4" rx="2" fill="black"/>
<rect x="858" y="404" width="4" height="4" rx="2" fill="black"/>
<rect x="898" y="404" width="4" height="4" rx="2" fill="black"/>
<rect x="938" y="404" width="4" height="4" rx="2" fill="black"/>
<rect x="978" y="404" width="4" height="4" rx="2" fill="black"/>
<rect x="1018" y="404" width="4" height="4" rx="2" fill="black"/>
<rect x="1058" y="404" width="4" height="4" rx="2" fill="black"/>
<rect x="1098" y="404" width="4" height="4" rx="2" fill="black"/>
<rect x="1138" y="404" width="4" height="4" rx="2" fill="black"/>
<rect x="1178" y="404" width="4" height="4" rx="2" fill="black"/>
<rect x="1218" y="404" width="4" height="4" rx="2" fill="black"/>
<rect x="1258" y="404" width="4" height="4" rx="2" fill="black"/>
<rect x="18" y="444" width="4" height="4" rx="2" fill="black"/>
<rect x="58" y="444" width="4" height="4" rx="2" fill="black"/>
<rect x="98" y="444" width="4" height="4" rx="2" fill="black"/>
<rect x="138" y="444" width="4" height="4" rx="2" fill="black"/>
<rect x="178" y="444" width="4" height="4" rx="2" fill="black"/>
<rect x="218" y="444" width="4" height="4" rx="2" fill="black"/>
<rect x="258" y="444" width="4" height="4" rx="2" fill="black"/>
<rect x="298" y="444" width="4" height="4" rx="2" fill="black"/>
<rect x="338" y="444" width="4" height="4" rx="2" fill="black"/>
<rect x="378" y="444" width="4" height="4" rx="2" fill="black"/>
<rect x="418" y="444" width="4" height="4" rx="2" fill="black"/>
<rect x="458" y="444" width="4" height="4" rx="2" fill="black"/>
<rect x="498" y="444" width="4" height="4" rx="2" fill="black"/>
<rect x="538" y="444" width="4" height="4" rx="2" fill="black"/>
<rect x="578" y="444" width="4" height="4" rx="2" fill="black"/>
<rect x="618" y="444" width="4" height="4" rx="2" fill="black"/>
<rect x="658" y="444" width="4" height="4" rx="2" fill="black"/>
<rect x="698" y="444" width="4" height="4" rx="2" fill="black"/>
<rect x="738" y="444" width="4" height="4" rx="2" fill="black"/>
<rect x="778" y="444" width="4" height="4" rx="2" fill="black"/>
<rect x="818" y="444" width="4" height="4" rx="2" fill="black"/>
<rect x="858" y="444" width="4" height="4" rx="2" fill="black"/>
<rect x="898" y="444" width="4" height="4" rx="2" fill="black"/>
<rect x="938" y="444" width="4" height="4" rx="2" fill="black"/>
<rect x="978" y="444" width="4" height="4" rx="2" fill="black"/>
<rect x="1018" y="444" width="4" height="4" rx="2" fill="black"/>
<rect x="1058" y="444" width="4" height="4" rx="2" fill="black"/>
<rect x="1098" y="444" width="4" height="4" rx="2" fill="black"/>
<rect x="1138" y="444" width="4" height="4" rx="2" fill="black"/>
<rect x="1178" y="444" width="4" height="4" rx="2" fill="black"/>
<rect x="1218" y="444" width="4" height="4" rx="2" fill="black"/>
<rect x="1258" y="444" width="4" height="4" rx="2" fill="black"/>
<rect x="18" y="484" width="4" height="4" rx="2" fill="black"/>
<rect x="58" y="484" width="4" height="4" rx="2" fill="black"/>
<rect x="98" y="484" width="4" height="4" rx="2" fill="black"/>
<rect x="138" y="484" width="4" height="4" rx="2" fill="black"/>
<rect x="178" y="484" width="4" height="4" rx="2" fill="black"/>
<rect x="218" y="484" width="4" height="4" rx="2" fill="black"/>
<rect x="258" y="484" width="4" height="4" rx="2" fill="black"/>
<rect x="298" y="484" width="4" height="4" rx="2" fill="black"/>
<rect x="338" y="484" width="4" height="4" rx="2" fill="black"/>
<rect x="378" y="484" width="4" height="4" rx="2" fill="black"/>
<rect x="418" y="484" width="4" height="4" rx="2" fill="black"/>
<rect x="458" y="484" width="4" height="4" rx="2" fill="black"/>
<rect x="498" y="484" width="4" height="4" rx="2" fill="black"/>
<rect x="538" y="484" width="4" height="4" rx="2" fill="black"/>
<rect x="578" y="484" width="4" height="4" rx="2" fill="black"/>
<rect x="618" y="484" width="4" height="4" rx="2" fill="black"/>
<rect x="658" y="484" width="4" height="4" rx="2" fill="black"/>
<rect x="698" y="484" width="4" height="4" rx="2" fill="black"/>
<rect x="738" y="484" width="4" height="4" rx="2" fill="black"/>
<rect x="778" y="484" width="4" height="4" rx="2" fill="black"/>
<rect x="818" y="484" width="4" height="4" rx="2" fill="black"/>
<rect x="858" y="484" width="4" height="4" rx="2" fill="black"/>
<rect x="898" y="484" width="4" height="4" rx="2" fill="black"/>
<rect x="938" y="484" width="4" height="4" rx="2" fill="black"/>
<rect x="978" y="484" width="4" height="4" rx="2" fill="black"/>
<rect x="1018" y="484" width="4" height="4" rx="2" fill="black"/>
<rect x="1058" y="484" width="4" height="4" rx="2" fill="black"/>
<rect x="1098" y="484" width="4" height="4" rx="2" fill="black"/>
<rect x="1138" y="484" width="4" height="4" rx="2" fill="black"/>
<rect x="1178" y="484" width="4" height="4" rx="2" fill="black"/>
<rect x="1218" y="484" width="4" height="4" rx="2" fill="black"/>
<rect x="1258" y="484" width="4" height="4" rx="2" fill="black"/>
<rect x="18" y="524" width="4" height="4" rx="2" fill="black"/>
<rect x="58" y="524" width="4" height="4" rx="2" fill="black"/>
<rect x="98" y="524" width="4" height="4" rx="2" fill="black"/>
<rect x="138" y="524" width="4" height="4" rx="2" fill="black"/>
<rect x="178" y="524" width="4" height="4" rx="2" fill="black"/>
<rect x="218" y="524" width="4" height="4" rx="2" fill="black"/>
<rect x="258" y="524" width="4" height="4" rx="2" fill="black"/>
<rect x="298" y="524" width="4" height="4" rx="2" fill="black"/>
<rect x="338" y="524" width="4" height="4" rx="2" fill="black"/>
<rect x="378" y="524" width="4" height="4" rx="2" fill="black"/>
<rect x="418" y="524" width="4" height="4" rx="2" fill="black"/>
<rect x="458" y="524" width="4" height="4" rx="2" fill="black"/>
<rect x="498" y="524" width="4" height="4" rx="2" fill="black"/>
<rect x="538" y="524" width="4" height="4" rx="2" fill="black"/>
<rect x="578" y="524" width="4" height="4" rx="2" fill="black"/>
<rect x="618" y="524" width="4" height="4" rx="2" fill="black"/>
<rect x="658" y="524" width="4" height="4" rx="2" fill="black"/>
<rect x="698" y="524" width="4" height="4" rx="2" fill="black"/>
<rect x="738" y="524" width="4" height="4" rx="2" fill="black"/>
<rect x="778" y="524" width="4" height="4" rx="2" fill="black"/>
<rect x="818" y="524" width="4" height="4" rx="2" fill="black"/>
<rect x="858" y="524" width="4" height="4" rx="2" fill="black"/>
<rect x="898" y="524" width="4" height="4" rx="2" fill="black"/>
<rect x="938" y="524" width="4" height="4" rx="2" fill="black"/>
<rect x="978" y="524" width="4" height="4" rx="2" fill="black"/>
<rect x="1018" y="524" width="4" height="4" rx="2" fill="black"/>
<rect x="1058" y="524" width="4" height="4" rx="2" fill="black"/>
<rect x="1098" y="524" width="4" height="4" rx="2" fill="black"/>
<rect x="1138" y="524" width="4" height="4" rx="2" fill="black"/>
<rect x="1178" y="524" width="4" height="4" rx="2" fill="black"/>
<rect x="1218" y="524" width="4" height="4" rx="2" fill="black"/>
<rect x="1258" y="524" width="4" height="4" rx="2" fill="black"/>
<rect x="18" y="564" width="4" height="4" rx="2" fill="black"/>
<rect x="58" y="564" width="4" height="4" rx="2" fill="black"/>
<rect x="98" y="564" width="4" height="4" rx="2" fill="black"/>
<rect x="138" y="564" width="4" height="4" rx="2" fill="black"/>
<rect x="178" y="564" width="4" height="4" rx="2" fill="black"/>
<rect x="218" y="564" width="4" height="4" rx="2" fill="black"/>
<rect x="258" y="564" width="4" height="4" rx="2" fill="black"/>
<rect x="298" y="564" width="4" height="4" rx="2" fill="black"/>
<rect x="338" y="564" width="4" height="4" rx="2" fill="black"/>
<rect x="378" y="564" width="4" height="4" rx="2" fill="black"/>
<rect x="418" y="564" width="4" height="4" rx="2" fill="black"/>
<rect x="458" y="564" width="4" height="4" rx="2" fill="black"/>
<rect x="498" y="564" width="4" height="4" rx="2" fill="black"/>
<rect x="538" y="564" width="4" height="4" rx="2" fill="black"/>
<rect x="578" y="564" width="4" height="4" rx="2" fill="black"/>
<rect x="618" y="564" width="4" height="4" rx="2" fill="black"/>
<rect x="658" y="564" width="4" height="4" rx="2" fill="black"/>
<rect x="698" y="564" width="4" height="4" rx="2" fill="black"/>
<rect x="738" y="564" width="4" height="4" rx="2" fill="black"/>
<rect x="778" y="564" width="4" height="4" rx="2" fill="black"/>
<rect x="818" y="564" width="4" height="4" rx="2" fill="black"/>
<rect x="858" y="564" width="4" height="4" rx="2" fill="black"/>
<rect x="898" y="564" width="4" height="4" rx="2" fill="black"/>
<rect x="938" y="564" width="4" height="4" rx="2" fill="black"/>
<rect x="978" y="564" width="4" height="4" rx="2" fill="black"/>
<rect x="1018" y="564" width="4" height="4" rx="2" fill="black"/>
<rect x="1058" y="564" width="4" height="4" rx="2" fill="black"/>
<rect x="1098" y="564" width="4" height="4" rx="2" fill="black"/>
<rect x="1138" y="564" width="4" height="4" rx="2" fill="black"/>
<rect x="1178" y="564" width="4" height="4" rx="2" fill="black"/>
<rect x="1218" y="564" width="4" height="4" rx="2" fill="black"/>
<rect x="1258" y="564" width="4" height="4" rx="2" fill="black"/>
<rect x="18" y="604" width="4" height="4" rx="2" fill="black"/>
<rect x="58" y="604" width="4" height="4" rx="2" fill="black"/>
<rect x="98" y="604" width="4" height="4" rx="2" fill="black"/>
<rect x="138" y="604" width="4" height="4" rx="2" fill="black"/>
<rect x="178" y="604" width="4" height="4" rx="2" fill="black"/>
<rect x="218" y="604" width="4" height="4" rx="2" fill="black"/>
<rect x="258" y="604" width="4" height="4" rx="2" fill="black"/>
<rect x="298" y="604" width="4" height="4" rx="2" fill="black"/>
<rect x="338" y="604" width="4" height="4" rx="2" fill="black"/>
<rect x="378" y="604" width="4" height="4" rx="2" fill="black"/>
<rect x="418" y="604" width="4" height="4" rx="2" fill="black"/>
<rect x="458" y="604" width="4" height="4" rx="2" fill="black"/>
<rect x="498" y="604" width="4" height="4" rx="2" fill="black"/>
<rect x="538" y="604" width="4" height="4" rx="2" fill="black"/>
<rect x="578" y="604" width="4" height="4" rx="2" fill="black"/>
<rect x="618" y="604" width="4" height="4" rx="2" fill="black"/>
<rect x="658" y="604" width="4" height="4" rx="2" fill="black"/>
<rect x="698" y="604" width="4" height="4" rx="2" fill="black"/>
<rect x="738" y="604" width="4" height="4" rx="2" fill="black"/>
<rect x="778" y="604" width="4" height="4" rx="2" fill="black"/>
<rect x="818" y="604" width="4" height="4" rx="2" fill="black"/>
<rect x="858" y="604" width="4" height="4" rx="2" fill="black"/>
<rect x="898" y="604" width="4" height="4" rx="2" fill="black"/>
<rect x="938" y="604" width="4" height="4" rx="2" fill="black"/>
<rect x="978" y="604" width="4" height="4" rx="2" fill="black"/>
<rect x="1018" y="604" width="4" height="4" rx="2" fill="black"/>
<rect x="1058" y="604" width="4" height="4" rx="2" fill="black"/>
<rect x="1098" y="604" width="4" height="4" rx="2" fill="black"/>
<rect x="1138" y="604" width="4" height="4" rx="2" fill="black"/>
<rect x="1178" y="604" width="4" height="4" rx="2" fill="black"/>
<rect x="1218" y="604" width="4" height="4" rx="2" fill="black"/>
<rect x="1258" y="604" width="4" height="4" rx="2" fill="black"/>
</mask>
<g mask="url(#mask0_1009_1947)">
<rect y="-94" width="1280" height="734" fill="url(#paint0_linear_1009_1947)"/>
</g>
</g>
<defs>
<linearGradient id="paint0_linear_1009_1947" x1="640" y1="-94" x2="640" y2="640" gradientUnits="userSpaceOnUse">
<stop stop-color="#CBC0B8" stop-opacity="0"/>
<stop offset="1" stop-color="#CBC0B8" stop-opacity="0.6"/>
</linearGradient>
<clipPath id="clip0_1009_1947">
<rect width="1280" height="640" fill="white"/>
</clipPath>
</defs>
</svg>
